<svg width="721" height="273" viewBox="0 0 721 273" fill="none" xmlns="http://www.w3.org/2000/svg">
<g clip-path="url(#clip0)">
<rect width="721" height="390" fill="white"/>
<path d="M40.513 152.402C38.984 152.402 37.7289 153.564 37.5364 155.167L30.4912 215.882L37.5364 275.255C37.7289 276.83 38.984 277.993 40.513 277.993C42.0161 277.993 43.2452 276.858 43.4895 275.255L51.464 215.882L43.4895 155.139C43.2415 153.54 42.0124 152.402 40.513 152.402V152.402ZM14.0757 175.673C12.5726 175.673 11.399 176.758 11.2065 178.306L5.9642 215.882L11.2065 252.789C11.399 254.333 12.5726 255.422 14.0757 255.422C15.5232 255.422 16.6968 254.333 16.9412 252.789L23.1127 215.882L16.9412 178.306C16.6968 176.755 15.5232 175.673 14.0757 175.673V175.673ZM68.5866 140.498C66.7022 140.498 65.1991 141.892 65.0066 143.828L58.3427 215.882L65.0066 285.275C65.1991 287.214 66.7022 288.604 68.5866 288.604C70.4414 288.604 71.9445 287.214 72.1926 285.303L79.7561 215.882L72.1926 143.828C71.9445 141.892 70.4414 140.498 68.5866 140.498V140.498ZM96.9046 137.967C94.6907 137.967 92.8915 139.644 92.7249 141.867L86.4163 215.885L92.7249 287.501C92.8878 289.721 94.6907 291.395 96.9046 291.395C99.1185 291.395 100.918 289.718 101.11 287.501L108.27 215.885L101.11 141.843C100.922 139.644 99.1185 137.967 96.9046 137.967V137.967ZM130.25 147.185C130.087 144.654 128.014 142.742 125.471 142.742C122.875 142.742 120.828 144.654 120.665 147.238L114.712 215.882L120.665 288.09C120.828 290.642 122.879 292.585 125.471 292.585C128.014 292.585 130.087 290.642 130.25 288.09L137.025 215.882L130.25 147.185V147.185ZM154.259 99.1236C151.364 99.1236 148.987 101.343 148.85 104.211L143.252 215.934L148.85 288.114C148.987 290.932 151.364 293.177 154.259 293.177C157.098 293.177 159.475 290.922 159.664 288.086V288.114L165.973 215.934L159.664 104.186C159.472 101.347 157.098 99.1236 154.259 99.1236ZM182.821 73.3738C179.571 73.3738 176.924 75.8805 176.787 79.0314L171.57 216.323L176.787 288.065C176.924 291.192 179.571 293.691 182.821 293.691C186.016 293.691 188.693 291.188 188.83 288.037V288.065L194.757 216.323L188.83 79.0314C188.693 75.8805 186.02 73.3738 182.821 73.3738V73.3738ZM212.509 60.9803C208.903 60.9803 205.982 63.7181 205.875 67.2296L200.984 215.959L205.875 286.948C205.982 290.407 208.907 293.149 212.509 293.149C216.059 293.149 218.98 290.411 219.117 286.927V286.983L224.604 215.959L219.117 67.2296C218.98 63.7181 216.059 60.9803 212.509 60.9803ZM249.212 62.2196C249.075 58.3966 245.906 55.3997 241.975 55.3997C238.013 55.3997 234.818 58.3966 234.737 62.2196L230.205 215.962L234.737 286.542C234.761 288.344 235.534 290.063 236.888 291.33C238.243 292.597 240.07 293.31 241.975 293.313C245.906 293.313 249.075 290.32 249.212 286.497L254.292 215.966L249.212 62.2196V62.2196ZM249.212 286.49V286.542V286.49ZM271.662 58.7572C267.375 58.7572 263.906 62.0131 263.825 66.1443L259.671 215.959L263.825 285.87C263.906 289.977 267.375 293.236 271.662 293.236C275.95 293.236 279.393 289.977 279.53 285.825V285.898L284.172 215.962L279.53 66.1478C279.389 62.0131 275.95 58.7572 271.662 58.7572ZM301.595 63.6656C296.952 63.6656 293.239 67.177 293.128 71.6443L289.359 215.98L293.15 285.429C293.231 289.847 296.945 293.359 301.587 293.359C306.23 293.359 309.973 289.847 310.054 285.38V285.436L314.312 215.99L310.054 71.6268C310.04 69.5127 309.144 67.4894 307.559 65.998C305.974 64.5067 303.83 63.6683 301.595 63.6656V63.6656ZM336.769 37.114C335.289 36.1789 333.551 35.6761 331.771 35.6681C329.968 35.6681 328.276 36.1828 326.855 37.0615C325.595 37.8399 324.557 38.8995 323.833 40.1469C323.108 41.3942 322.719 42.791 322.701 44.214L322.645 45.842L319.258 215.952C319.258 216.053 322.697 284.988 322.697 284.988V285.268C322.808 287.211 323.571 288.986 324.83 290.383C325.67 291.357 326.728 292.143 327.927 292.685C329.127 293.226 330.438 293.51 331.767 293.516C334.226 293.516 336.466 292.532 338.102 290.981C339.738 289.431 340.779 287.312 340.834 284.96L341.215 278.115L344.658 215.98L340.834 44.214C340.805 42.8096 340.421 41.4321 339.714 40.1968C339.007 38.9615 337.997 37.9045 336.769 37.114V37.114ZM340.838 284.991V284.96V284.991V284.942V284.96V284.991ZM366.723 20.8449C365.031 19.8649 363.056 19.4127 361.077 19.5521C359.097 19.6916 357.215 20.4157 355.695 21.6221C354.591 22.4737 353.699 23.5441 353.081 24.7576C352.463 25.9712 352.134 27.2983 352.118 28.6451L352.092 29.6009L348.139 216.011L350.16 250.464L352.126 284.011C352.181 288.968 356.524 293.079 361.788 293.079C367.064 293.079 371.407 288.968 371.484 283.937V284.011L375.772 216.011L371.484 28.6451C371.453 27.0703 371 25.5287 370.167 24.1646C369.335 22.8004 368.15 21.6582 366.723 20.8449V20.8449ZM633.059 127.328C621.012 127.328 609.516 129.624 599.032 133.783C592.038 58.8377 525.566 0.0560303 444.514 0.0560303C425.269 0.0766983 406.191 3.43853 388.229 9.97434C381.591 12.4005 379.844 14.9072 379.766 19.7631V283.727C379.844 288.814 384.016 292.767 389.266 293.257C389.484 293.285 633.062 293.257 633.062 293.257C681.646 293.257 721.004 256.455 721.004 210.511C721 164.568 681.642 127.328 633.059 127.328V127.328ZM76.1761 343.3C65.8803 341.007 63.0963 339.764 63.0963 335.92C63.0963 333.21 65.4176 330.392 72.3814 330.392C78.3345 330.392 82.977 332.661 87.1568 336.725L96.5529 328.123C90.4073 322.06 82.977 318.436 72.8479 318.436C60.042 318.436 49.6352 325.305 49.6352 336.463C49.6352 348.573 57.991 352.189 69.9824 354.794C82.244 357.427 84.4579 359.212 84.4579 363.165C84.4579 367.814 80.8261 369.852 73.1218 369.852C66.8947 369.852 61.0527 367.814 56.4916 362.801L47.1251 370.706C52.0416 377.55 61.5192 381.864 72.3851 381.864C90.1111 381.864 97.9487 373.986 97.9487 362.283C97.945 348.909 86.5015 345.607 76.1761 343.3V343.3ZM136.014 318.436C118.288 318.436 107.804 331.453 107.804 350.155C107.804 368.882 118.292 381.871 136.014 381.871C153.766 381.871 164.251 368.882 164.251 350.155C164.251 331.453 153.766 318.436 136.014 318.436ZM136.014 369.677C125.526 369.677 121.158 361.131 121.158 350.155C121.158 339.18 125.526 330.658 136.014 330.658C146.529 330.658 150.897 339.183 150.897 350.155C150.897 361.12 146.529 369.677 136.014 369.677ZM216.744 353.947C216.744 363.76 211.635 369.852 203.391 369.852C195.116 369.852 190.089 363.603 190.089 353.761V319.41H177.09V353.94C177.09 371.861 187.686 381.86 203.391 381.86C219.913 381.86 229.746 371.581 229.746 353.765V319.413H216.748L216.744 353.947V353.947ZM285.86 345.425C285.86 348.835 286.023 356.583 286.023 358.855C285.205 357.28 283.076 354.209 281.488 351.913L258.435 319.424H245.984V380.911H258.82V353.849C258.82 350.418 258.627 342.688 258.627 340.419C259.475 341.991 261.604 345.068 263.162 347.365L287.06 380.911H298.666V319.424H285.857V345.425H285.86ZM335.732 319.417H315.415V380.908H334.803C351.522 380.908 368.071 371.767 368.071 350.145C368.071 327.658 354.303 319.417 335.732 319.417ZM334.803 368.952H328.391V331.379H335.299C349.034 331.379 354.717 337.597 354.717 350.152C354.71 361.407 348.457 368.952 334.803 368.952ZM408.295 330.651C414.137 330.651 417.854 333.13 420.205 337.31L432.245 332.073C428.154 324.066 420.753 318.433 408.484 318.433C391.476 318.433 379.596 331.453 379.596 350.148C379.596 369.575 391.006 381.867 408.021 381.867C419.824 381.867 427.602 376.7 432.086 367.968L421.101 361.821C417.662 367.275 414.245 369.677 408.373 369.677C398.625 369.677 392.942 361.204 392.942 350.148C392.942 338.735 398.544 330.651 408.295 330.651ZM456.524 319.417H443.522V380.908H482.624V368.791H456.513V319.413H456.524V319.417ZM516.851 318.436C499.125 318.436 488.607 331.453 488.607 350.155C488.607 368.882 499.125 381.871 516.851 381.871C534.603 381.871 545.117 368.882 545.117 350.155C545.117 331.453 534.603 318.436 516.851 318.436ZM516.851 369.677C506.362 369.677 501.99 361.131 501.99 350.155C501.99 339.18 506.362 330.658 516.851 330.658C527.365 330.658 531.711 339.183 531.711 350.155C531.711 361.12 527.365 369.677 516.851 369.677ZM597.584 353.947C597.584 363.76 592.501 369.852 584.23 369.852C575.956 369.852 570.925 363.603 570.925 353.761V319.41H557.93V353.94C557.93 371.861 568.522 381.86 584.23 381.86C600.753 381.86 610.609 371.581 610.609 353.765V319.413H597.584V353.947V353.947ZM647.201 319.417H626.854V380.908H646.238C663.006 380.908 679.506 371.767 679.506 350.145C679.51 327.658 665.797 319.417 647.201 319.417V319.417ZM646.238 368.952H639.852V331.379H646.727C660.466 331.379 666.112 337.597 666.112 350.152C666.123 361.407 659.929 368.952 646.238 368.952Z" fill="#666666"/>
</g>
<defs>
<clipPath id="clip0">
<rect width="721" height="390" fill="white"/>
</clipPath>
</defs>
</svg>
